<svg id="Layer_1" enable-background="new 0 0 510 510" height="512" viewBox="0 0 510 510" width="512" xmlns="http://www.w3.org/2000/svg"><path d="m446.315 480-28.705-100.466-86.566-43.282c-6.826-16.743-19.297-31.418-35.624-40.683 2.473-2.801 4.175-5.046 6.315-8.363l94.593 11.826 26.192 39.288 24.961-16.641-33.808-50.712-100.482-12.562c1.603-8.042 2.048-15.689 1.676-23.18l70.133-11.684 45.638-91.275 39.105-13.035-9.486-28.461-50.895 16.965-44.362 88.724-56.48 9.411c-2.667-6.576-6.022-12.497-10.235-17.973 38.036-20.42 42.82-72.869 9.066-99.803l34.915-17.457 13.545-40.637h34.189v-30h-55.811l-16.454 49.362-51.275 25.638h-22.92l-51.274-25.638-16.455-49.362h-55.811v30h34.189l13.546 40.638 34.915 17.457c-33.746 26.928-28.98 79.377 9.066 99.803-4.208 5.47-7.565 11.389-10.234 17.973l-56.482-9.412-44.362-88.725-50.895-16.964-9.486 28.461 39.105 13.035 45.638 91.275 70.133 11.685c-.37 7.452.066 15.104 1.676 23.18l-100.482 12.562-33.807 50.712 24.96 16.64 26.192-39.288 94.592-11.826c2.142 3.318 3.844 5.564 6.315 8.363-16.304 9.251-28.788 23.915-35.624 40.683l-86.565 43.282-28.704 100.466h-33.686v30h56.314l31.296-109.534 55.589-27.795c1.058 14.433 4.967 21.953 12.445 48.347 7.656 25.517 27.314 45.78 52.588 54.205l16.768 5.588 16.768-5.589c25.273-8.425 44.932-28.689 52.588-54.206 7.57-26.718 11.393-33.99 12.445-48.346l55.589 27.795 31.295 109.535h56.315v-30zm-206.315-375h30c39.809 1.653 39.778 58.362 0 60h-30c-39.809-1.653-39.778-58.362 0-60zm-15 135c0-24.393 13.738-45 30-45s30 20.607 30 45c0 24.392-13.738 45-30 45s-30-20.608-30-45zm79.772 141.895-9.15 30.502c-9.191 30.637-38.601 35.628-40.621 36.792-2.22-1.279-31.392-6.029-40.621-36.791l-9.15-30.504c-4.768-15.891-1.821-32.638 8.082-45.948 20.791-27.946 62.58-27.956 83.379 0 9.902 13.31 12.848 30.057 8.081 45.949z"/></svg>