<svg height="511pt" viewBox="-32 0 511 511.99976" width="511pt" xmlns="http://www.w3.org/2000/svg"><path d="m433.230469 192.800781h-25.917969l-59.875-59.875c-2.8125-2.8125-6.625-4.394531-10.605469-4.394531h-51.078125c-4.535156-18.550781-17.269531-33.917969-34.140625-42.015625 49.90625-51.410156 109.566407-56.515625 133.417969-56.515625 8.285156 0 14.996094-6.714844 14.996094-15s-6.71875-15-15.003906-15c-29.144532 0-102.257813 6.738281-160.65625 71.78125-58.402344-65.042969-131.515626-71.78125-160.660157-71.78125-8.28125 0-15.003906 6.714844-15.003906 15s6.710937 15 14.996094 15c23.855469 0 83.511719 5.105469 133.417969 56.519531-16.871094 8.09375-29.601563 23.460938-34.136719 42.015625h-51.082031c-3.976563 0-7.792969 1.578125-10.605469 4.394532l-59.875 59.871093h-25.917969c-8.285156 0-15 6.714844-15 15 0 8.285157 6.714844 15 15 15h32.132812c3.980469 0 7.792969-1.582031 10.605469-4.394531l59.875-59.875h37.90625l-61.25 61.25c-111.746093 111.75-61.722656 241.019531-44.996093 282.792969 2.28125 5.691406 7.792968 9.421875 13.925781 9.421875 17.65625 0 92.703125 1.398437 160.667969-58.707032 67.964843 60.105469 143.007812 58.707032 160.664062 58.707032 6.132812 0 11.648438-3.730469 13.925781-9.421875 16.730469-41.773438 66.753907-171.042969-44.996093-282.792969l-61.25-61.25h37.910156l59.871094 59.875c2.8125 2.8125 6.628906 4.394531 10.605468 4.394531h32.132813c8.285156 0 15-6.714843 15-15 0-8.285156-6.714844-15-15-15zm-223.863281 233.589844c-34.308594 32.34375-81.859376 54.363281-135.535157 55.554687-1.324219-3.320312-2.957031-7.402343-4.820312-12.070312-31.574219-78.9375-13.136719-168.769531 46.972656-228.878906l58.597656-58.601563c8.617188 11.011719 20.789063 19.105469 34.785157 22.523438zm-18.203126-282.859375c0-18.300781 14.886719-33.191406 33.1875-33.195312h.003907.007812.003907.003906.003906.003906c18.300782.007812 33.1875 14.894531 33.1875 33.195312 0 18.308594-14.894531 33.203125-33.199218 33.203125-18.308594 0-33.203126-14.894531-33.203126-33.203125zm141.585938 97.464844c60.105469 60.105468 78.546875 149.941406 46.972656 228.878906-1.863281 4.667969-3.496094 8.75-4.824218 12.070312-53.671876-1.191406-101.226563-23.210937-135.53125-55.554687v-221.46875c13.992187-3.421875 26.167968-11.511719 34.78125-22.523437zm0 0"/></svg>