<svg id="Capa_1" enable-background="new 0 0 512 512" height="512" viewBox="0 0 512 512" width="512" xmlns="http://www.w3.org/2000/svg"><g><path d="m226 30c19.96 0 36.917 13.067 42.79 31.092-66.343 8.478-117.79 65.298-117.79 133.908 0 15.878 2.776 36.52 7.562 57.054-22.429 12.98-37.562 37.221-37.562 64.946 0 36.612 26.369 67.181 61.114 73.711 8.073 51.127 65.032 121.289 103.886 121.289 39.402 0 95.932-70.919 103.886-121.289 34.745-6.53 61.114-37.099 61.114-73.711 0-27.725-15.133-51.966-37.562-64.946 4.786-20.534 7.562-41.176 7.562-57.054 0-69.845-53.316-127.47-121.387-134.317-6.703-34.528-37.154-60.683-73.613-60.683-42.609 0-69.86 13.208-82.052 16.54-26.796 8.931-54.703 13.46-82.948 13.46v30c31.475 0 62.574-5.047 92.435-15 12.737-3.52 35.761-15 72.565-15zm165 165c0 12.84-2.294 30.187-6.165 47.538-33.764-3.982-65.244 14.891-78.059 45.637l27.691 11.542c7.018-16.838 23.321-27.717 41.533-27.717 24.813 0 45 20.187 45 45s-20.187 45-45 45h-15v15c0 43.139-55.205 105-75 105-19.691 0-75-61.677-75-105v-15h-15c-24.813 0-45-20.187-45-45s20.187-45 45-45c18.212 0 34.515 10.879 41.533 27.716l27.691-11.542c-12.824-30.768-44.322-49.616-78.059-45.637-3.871-17.35-6.165-34.697-6.165-47.537 0-57.897 47.103-105 105-105s105 47.103 105 105z"/></g></svg>