<svg id="Capa_1" enable-background="new 0 0 512 512" height="512" viewBox="0 0 512 512" width="512" xmlns="http://www.w3.org/2000/svg"><g><path d="m512 206.222v-30h-123.024l-27.939 21.506v-66.352l106.118-74.817-17.287-24.519-118.831 83.78v59.34c-7.646-11.722-17.958-21.551-30.072-28.62v-30.36h-30v19.473c-4.879-.826-9.889-1.263-15-1.263s-10.121.437-15 1.263v-19.473h-30v30.361c-12.076 7.046-22.362 16.836-30 28.509v-59.23l-118.832-83.779-17.287 24.518 106.118 74.817v66.352l-27.939-21.506h-123.025v30h112.815l38.975 30h-87.723l-44.31 102.351 27.531 11.919 36.482-84.27h87.613l-70.441 42.769-42.06 160.92 29.025 7.586 38.987-149.167 57.426-34.865c-21.722 19.604-35.402 47.956-35.402 79.451 0 59.024 48.021 107.044 107.045 107.044s107.044-48.02 107.044-107.044c0-31.564-13.74-59.973-35.544-79.581l57.641 34.996 38.987 149.167 29.025-7.586-42.06-160.92-70.441-42.769h87.613l36.482 84.27 27.531-11.919-44.311-102.351h-87.72l38.975-30h112.815zm-256.036-41.832c32.847 0 59.569 26.723 59.569 59.57s-26.723 59.57-59.569 59.57c-32.848 0-59.57-26.723-59.57-59.57s26.722-59.57 59.57-59.57zm77.044 208.525c0 42.482-34.562 77.044-77.044 77.044s-77.045-34.562-77.045-77.044c0-29.023 16.145-54.323 39.915-67.452 11.318 5.177 23.892 8.066 37.13 8.066 13.237 0 25.812-2.889 37.13-8.066 23.769 13.129 39.914 38.429 39.914 67.452z"/></g></svg>