<svg id="Capa_1" enable-background="new 0 0 512 512" height="512" viewBox="0 0 512 512" width="512" xmlns="http://www.w3.org/2000/svg"><g><path d="m125.394 245.393-38.788 38.787c-10.846 10.847-25.266 16.82-40.606 16.82-8.284 0-15 6.716-15 15s6.716 15 15 15c23.353 0 45.308-9.094 61.819-25.606l34.394-34.394h53.828c5.075 6.746 11.261 12.609 18.283 17.32-12.317 11.452-20.933 26.853-26.218 42.68h-52.106c-7.157 0-13.317 5.057-14.713 12.077l-24.143 121.529c-2.003 10.079-10.893 17.394-21.137 17.394-8.284 0-15.003 6.716-15.003 15s6.719 15 15.003 15c24.513 0 45.777-17.473 50.562-41.547l21.745-109.463h33.432c-.495 4.94-.746 9.95-.746 15.01 0 49.539 27.082 106 75 106 47.792 0 75-56.258 75-106 0-5.06-.251-10.07-.745-15h33.432l21.746 109.453c4.783 24.074 26.046 41.547 50.567 41.547 8.284 0 14.996-6.716 14.996-15s-6.719-15-15.003-15c-10.244 0-19.134-7.315-21.136-17.393l-24.145-121.53c-1.395-7.02-7.555-12.077-14.712-12.077h-52.105c-5.284-15.824-13.9-31.227-26.218-42.68 7.022-4.711 13.207-10.574 18.283-17.32h53.828l34.394 34.393c16.51 16.513 38.465 25.607 61.818 25.607 8.284 0 15-6.716 15-15s-6.716-15-15-15c-15.34 0-29.76-5.973-40.606-16.82l-38.787-38.787c-2.813-2.813-6.628-4.393-10.607-4.393h-46.509c.988-4.848 1.509-9.864 1.509-15s-.521-10.152-1.509-15h46.509c5.682 0 10.876-3.21 13.416-8.292l46.585-93.168c5.717-11.436 17.212-18.54 29.999-18.54 8.284 0 15-6.716 15-15s-6.716-15-15-15c-24.224 0-46.001 13.459-56.832 35.125l-42.439 84.875h-50.77c-2.635-3.503-5.579-6.758-8.775-9.747 15.789-9.543 23.816-26.424 23.816-50.253 0-11.321-1.718-22.163-4.845-32.17 19.937-4.618 34.845-22.51 34.845-43.83 0-24.813-20.187-45-45-45-8.284 0-15 6.716-15 15s6.716 15 15 15c8.271 0 15 6.729 15 15s-6.729 15-15 15h-4.394c-13.733-18.413-33.575-30-55.606-30s-41.873 11.587-55.606 30h-4.394c-8.271 0-15-6.729-15-15s6.729-15 15-15c8.284 0 15-6.716 15-15s-6.716-15-15-15c-24.813 0-45 20.187-45 45 0 21.32 14.908 39.212 34.845 43.83-3.127 10.007-4.845 20.849-4.845 32.17 0 23.829 8.027 40.71 23.816 50.253-3.196 2.99-6.139 6.245-8.775 9.747h-50.77l-42.438-84.875c-10.832-21.666-32.609-35.125-56.833-35.125-8.284 0-15 6.716-15 15s6.716 15 15 15c12.787 0 24.282 7.104 30 18.541l46.584 93.167c2.54 5.082 7.734 8.292 13.416 8.282h46.509c-.988 4.858-1.509 9.874-1.509 15.01s.521 10.152 1.509 15h-46.509c-3.979 0-7.794 1.58-10.606 4.393zm175.606 130.607c0 40.486-21.028 76-45 76s-45-35.514-45-76c0-40.654 20.607-75 45-75s45 34.346 45 75zm-45-316c24.393 0 45 27.935 45 61 0 24.673-7.99 30-45 30s-45-5.327-45-30c0-33.065 20.607-61 45-61zm0 121c24.813 0 45 20.187 45 45s-20.187 45-45 45-45-20.187-45-45 20.187-45 45-45z"/></g></svg>