<svg id="Layer_1" enable-background="new 0 0 510 510" height="512" viewBox="0 0 510 510" width="512" xmlns="http://www.w3.org/2000/svg"><path d="m480 413.787v-75.996l-75-60c-1.176-13.464 5.452-49.657-17.325-92.706l60.733-24.293 15.598-93.584 26.601-26.602-21.213-21.213-33.4 33.398-14.402 86.416-50.938 20.375c-11.366-13.753-25.135-25.449-40.654-34.446-1.356-11.368 6.138-41.793-18.957-69.967l18.957-18.956v-36.213h-30v23.787l-13.235 13.235c-19.649-9.194-43.032-9.552-63.489.04l-13.276-13.275v-23.787h-30v36.213l18.986 18.986c-25.202 28.314-17.578 58.832-18.986 69.938-15.52 8.997-29.288 20.693-40.655 34.446l-50.937-20.375-14.402-86.416-33.4-33.399-21.212 21.213 26.6 26.602 15.598 93.584 60.733 24.293c-22.747 42.992-16.14 79.133-17.325 92.706l-75 60v75.996l-25.606 25.606 21.213 21.213 34.393-34.393v-74.004l45.016-36.012c.219 27.803 8.034 53.828 21.478 76.096l-36.494 36.494v81.213h30v-68.787l24.686-24.687c59.538 64.641 161.105 64.623 220.627 0l24.687 24.687v68.787h30v-81.213l-36.494-36.494c13.444-22.268 21.26-48.293 21.478-76.096l45.016 36.012v74.004l34.394 34.394 21.213-21.213zm-270-308.787c2.4-59.651 87.642-59.708 90 0v6.899c-29.168-9.192-60.766-9.213-90 0zm45 30c53.211 0 98.436 34.817 114.11 82.863l-114.11 50.722-114.111-50.722c15.674-48.046 60.9-82.863 114.111-82.863zm-120 180c.068-62.221-.155-60.564.199-66.835l104.801 46.583v139.316c-59.114-7.404-105-57.975-105-119.064zm135 119.064v-139.316l104.801-46.583c.354 6.277.13 4.47.199 66.835 0 61.089-45.886 111.66-105 119.064z"/></svg>