<svg height="511pt" viewBox="0 -12 511.99827 511" width="511pt" xmlns="http://www.w3.org/2000/svg"><g fill="#df7f66"><path d="m256.527344 69.0625c-4.140625 0-7.5-3.355469-7.5-7.5v-24c0-4.144531 3.359375-7.5 7.5-7.5s7.5 3.355469 7.5 7.5v24c0 4.144531-3.355469 7.5-7.5 7.5zm0 0"/><path d="m278.011719 76.609375c-2.089844 0-4.167969-.890625-5.652344-2.632813-2.726563-3.203124-2.40625-8.066406.710937-10.867187l41.707032-37.441406c1.367187-1.226563 3.121094-1.90625 4.933594-1.90625h35.246093l16.742188-20.507813c2.660156-3.2617185 7.390625-3.6875 10.5625-.957031 3.175781 2.734375 3.59375 7.589844.933593 10.847656l-18.988281 23.265625c-1.425781 1.746094-3.53125 2.753906-5.75 2.753906h-35.929687l-39.582032 35.539063c-1.421874 1.277344-3.183593 1.90625-4.933593 1.90625zm0 0"/><path d="m235.046875 76.609375c-1.753906 0-3.511719-.628906-4.9375-1.90625l-39.582031-35.539063h-35.929688c-2.21875 0-4.324218-1.007812-5.75-2.753906l-18.988281-23.261718c-2.660156-3.261719-2.242187-8.117188.929687-10.847657 3.175782-2.734375 7.90625-2.30468725 10.566407.953125l16.742187 20.511719h35.246094c1.816406 0 3.570312.675781 4.9375 1.902344l41.703125 37.441406c3.117187 2.800781 3.4375 7.664063.710937 10.867187-1.484374 1.738282-3.5625 2.632813-5.648437 2.632813zm0 0"/><path d="m319.957031 148.695312c-3.683593 0-6.894531-2.710937-7.421875-6.460937-.570312-4.105469 2.289063-7.894531 6.394532-8.464844l26.101562-3.644531 18.300781-43.894531c.65625-1.578125 1.835938-2.882813 3.335938-3.699219l42.707031-23.242188c3.636719-1.980468 8.191406-.636718 10.171875 3.003907 1.980469 3.636719.632813 8.191406-3.003906 10.171875l-40.382813 21.976562-18.929687 45.40625c-1.023438 2.449219-3.261719 4.175782-5.886719 4.542969l-30.34375 4.234375c-.351562.046875-.699219.070312-1.042969.070312zm0 0"/><path d="m448.796875 245.671875c-2.023437 0-4.035156-.816406-5.503906-2.402344l-47.15625-50.910156-41.105469 14.472656c-3.910156 1.375-8.191406-.679687-9.566406-4.585937s.675781-8.1875 4.582031-9.5625l45.753906-16.109375c2.824219-.996094 5.960938-.214844 7.992188 1.980469l45.980469 49.640624 37.738281-27.40625c1.945312-1.414062 4.449219-1.808593 6.734375-1.0625l12.578125 4.105469c3.9375 1.289063 6.085937 5.523438 4.800781 9.460938s-5.519531 6.085937-9.457031 4.800781l-8.941407-2.921875-40.027343 29.070313c-1.320313.960937-2.867188 1.429687-4.402344 1.429687zm0 0"/><path d="m491.917969 421.253906h-24.128907c-2.214843 0-4.3125-.976562-5.738281-2.671875l-18.996093-22.589843c-.746094-.886719-1.273438-1.929688-1.546876-3.054688l-24.71875-101.648438-36.070312-7.359374c-4.058594-.828126-6.679688-4.789063-5.851562-8.847657.828124-4.058593 4.789062-6.675781 8.847656-5.851562l40.738281 8.3125c2.847656.582031 5.101563 2.753906 5.789063 5.578125l25.425781 104.5625 15.613281 18.570312h20.636719c4.144531 0 7.5 3.359375 7.5 7.5 0 4.144532-3.355469 7.5-7.5 7.5zm0 0"/><path d="m192.046875 148.695312c-.347656 0-.695313-.023437-1.046875-.070312l-30.34375-4.234375c-2.625-.367187-4.863281-2.09375-5.886719-4.542969l-18.929687-45.40625-40.382813-21.976562c-3.636719-1.980469-4.980469-6.535156-3.003906-10.171875 1.980469-3.636719 6.535156-4.980469 10.175781-3.003907l42.703125 23.242188c1.503907.816406 2.679688 2.121094 3.339844 3.699219l18.296875 43.894531 26.105469 3.644531c4.101562.570313 6.964843 4.363281 6.390625 8.464844-.523438 3.75-3.738282 6.460937-7.417969 6.460937zm0 0"/><path d="m63.203125 245.671875c-1.535156 0-3.078125-.46875-4.402344-1.429687l-40.03125-29.070313-8.9375 2.917969c-3.941406 1.285156-8.171875-.863282-9.460937-4.800782-1.285156-3.9375.867187-8.171874 4.804687-9.457031l12.578125-4.105469c2.285156-.746093 4.789063-.351562 6.734375 1.058594l37.738281 27.40625 45.980469-49.640625c2.03125-2.191406 5.171875-2.972656 7.992188-1.976562l45.753906 16.109375c3.90625 1.375 5.957031 5.65625 4.582031 9.5625s-5.65625 5.957031-9.5625 4.582031l-41.109375-14.46875-47.152343 50.910156c-1.472657 1.585938-3.480469 2.402344-5.507813 2.402344zm0 0"/><path d="m44.210938 421.253906h-24.128907c-4.144531 0-7.5-3.355468-7.5-7.5 0-4.140625 3.355469-7.5 7.5-7.5h20.636719l15.613281-18.570312 25.425781-104.5625c.6875-2.824219 2.941407-4.996094 5.789063-5.578125l40.738281-8.3125c4.058594-.828125 8.019532 1.792969 8.847656 5.851562.828126 4.058594-1.792968 8.019531-5.851562 8.847657l-36.070312 7.359374-24.714844 101.648438c-.273438 1.125-.804688 2.167969-1.550782 3.054688l-18.992187 22.589843c-1.429687 1.695313-3.527344 2.671875-5.742187 2.671875zm0 0"/></g><path d="m311.890625 161.335938h-110.726563s-72.730468 37.304687-72.730468 149.226562c0 75.8125 58.777344 135.605469 96.699218 166.296875 18.296876 14.804687 44.492188 14.804687 62.789063 0 37.921875-30.691406 96.699219-90.484375 96.699219-166.296875 0-111.921875-72.730469-149.226562-72.730469-149.226562zm0 0" fill="#d8694b"/><path d="m255.679688 476.859375c-37.921876-30.691406-96.695313-90.484375-96.695313-166.296875 0-111.921875 72.730469-149.226562 72.730469-149.226562h-30.546875s-72.730469 37.304687-72.730469 149.226562c0 75.8125 58.773438 135.605469 96.699219 166.296875 13.386719 10.835937 31.007812 13.730469 46.667969 8.707031-5.742188-1.839844-11.21875-4.734375-16.125-8.707031zm0 0" fill="#c5573a"/><path d="m383.53125 287.527344-34.230469 16.203125c-17.109375 8.101562-36.425781 10.292969-54.917969 6.230469l-19.511718-4.285157c-12.085938-2.65625-24.601563-2.65625-36.6875 0l-19.511719 4.285157c-18.492187 4.0625-37.808594 1.871093-54.917969-6.230469l-34.230468-16.203125c-.699219 7.304687-1.085938 14.96875-1.085938 23.035156 0 12.316406 1.558594 24.203125 4.316406 35.617188l31 14.675781c17.109375 8.101562 36.425782 10.292969 54.917969 6.230469l19.511719-4.285157c12.085937-2.65625 24.601562-2.65625 36.6875 0l19.511718 4.285157c18.492188 4.0625 37.808594 1.871093 54.917969-6.230469l31-14.675781c2.757813-11.414063 4.320313-23.300782 4.320313-35.617188 0-8.066406-.390625-15.730469-1.089844-23.035156zm0 0" fill="#c5573a"/><path d="m159.152344 301.554688-29.628906-14.027344c-1.660157 18.292968-1.914063 39.789062 3.230468 58.652344l31 14.675781c1.484375.703125 2.992188 1.347656 4.507813 1.960937-7.851563-22.132812-9.84375-40.75-9.109375-61.261718zm0 0" fill="#a94b30"/><path d="m294.382812 424.210938-19.511718-4.289063c-12.085938-2.652344-24.601563-2.652344-36.6875 0l-19.511719 4.289063c-16.371094 3.59375-33.386719 2.28125-48.949219-3.6875 17.984375 23.671874 38.714844 42.824218 55.410156 56.335937 18.296876 14.804687 44.496094 14.804687 62.789063 0 16.695313-13.511719 37.429687-32.664063 55.414063-56.335937-15.566407 5.96875-32.582032 7.28125-48.953126 3.6875zm0 0" fill="#c5573a"/><path d="m255.679688 476.859375c-15.367188-12.4375-34.160157-29.65625-51.078126-50.78125-11.859374.589844-23.742187-1.285156-34.878906-5.554687 1 1 18.964844 26.839843 55.410156 56.335937.003907 0 .003907.003906.007813.003906 12.957031 10.492188 30.515625 13.882813 46.660156 8.703125-5.738281-1.839844-11.214843-4.734375-16.121093-8.707031zm0 0" fill="#a94b30"/><path d="m345.875 191.011719c-16.242188 6.832031-34.226562 8.496093-51.492188 4.703125l-10.277343-2.261719-4.460938 5.160156c-12.191406 14.089844-34.042969 14.089844-46.234375 0l-4.460937-5.160156-10.277344 2.261719c-17.265625 3.792968-35.253906 2.128906-51.492187-4.703125-9.21875 11.226562-18.640626 26.007812-25.882813 44.964843l22.457031 10.632813c17.109375 8.097656 36.425782 10.289063 54.917969 6.226563l19.511719-4.285157c12.085937-2.65625 24.601562-2.65625 36.683594 0l19.515624 4.285157c18.488282 4.066406 37.808594 1.871093 54.917969-6.226563l22.457031-10.632813c-7.246093-18.957031-16.664062-33.738281-25.882812-44.964843zm0 0" fill="#c5573a"/><path d="m167.640625 248.316406c6.417969-21.3125 15.664063-38.070312 25.148437-50.953125-8.769531-.777343-17.410156-2.90625-25.609374-6.351562-11.488282 13.40625-19.328126 28.941406-25.882813 44.964843 24.625 11.65625 23.4375 11.140626 26.34375 12.339844zm0 0" fill="#a94b30"/><path d="m287.074219 82.355469c0-11.484375-13.675781-20.792969-30.546875-20.792969s-30.546875 9.308594-30.546875 20.792969 13.675781 20.792969 30.546875 20.792969 30.546875-9.308594 30.546875-20.792969zm0 0" fill="#d8694b"/><path d="m254.230469 82.355469c0-8.011719 6.664062-14.960938 16.421875-18.433594-4.226563-1.503906-9.027344-2.359375-14.125-2.359375-16.871094 0-30.546875 9.308594-30.546875 20.792969s13.675781 20.792969 30.546875 20.792969c5.097656 0 9.898437-.851563 14.125-2.355469-9.757813-3.472657-16.421875-10.421875-16.421875-18.4375zm0 0" fill="#c5573a"/><path d="m286.71875 85.53125c-2.246094 9.976562-14.90625 17.617188-30.191406 17.617188s-27.945313-7.640626-30.191406-17.617188c-27.765626 8.140625-42.550782 39.769531-29.496094 66.832031l4.328125 8.972657h110.722656l4.328125-8.972657c13.050781-27.0625-1.734375-58.691406-29.5-66.832031zm0 0" fill="#c5573a"/><path d="m236.304688 97.9375c-5.226563-3.148438-8.863282-7.492188-9.96875-12.40625-27.765626 8.140625-42.550782 39.769531-29.496094 66.832031l4.328125 8.972657h30.546875l-4.328125-8.972657c-9.253907-19.179687-4.507813-40.648437 8.917969-54.425781zm0 0" fill="#a94b30"/><path d="m201.167969 161.335938 32.246093 37.277343c12.1875 14.089844 34.039063 14.089844 46.230469 0l32.246094-37.277343zm0 0" fill="#a94b30"/><path d="m263.960938 198.613281-32.246094-37.277343h-30.546875l32.246093 37.277343c9.878907 11.421875 26.101563 13.582031 38.386719 6.492188-2.871093-1.660157-5.53125-3.820313-7.839843-6.492188zm0 0" fill="#8c3d27"/></svg>