<svg height="368pt" viewBox="-64 0 368 368" width="368pt" xmlns="http://www.w3.org/2000/svg"><path d="m80 286.433594c-2.441406-1.097656-4.511719-2.699219-7-4.691406-5.433594-4.335938-12.191406-9.742188-25-9.742188s-19.566406 5.40625-25 9.753906c-4.695312 3.757813-7.808594 6.246094-15 6.246094-4.414062 0-8 3.574219-8 8s3.585938 8 8 8c12.808594 0 19.566406-5.40625 25-9.753906 4.695312-3.757813 7.808594-6.246094 15-6.246094s10.304688 2.488281 15 6.246094c4.167969 3.328125 9.144531 7.265625 17 8.929687v24.824219c0 22.054688 17.945312 40 40 40s40-17.945312 40-40v-24.824219c7.855469-1.664062 12.832031-5.601562 17-8.929687 4.703125-3.757813 7.808594-6.246094 15-6.246094s10.296875 2.488281 15 6.246094c5.441406 4.347656 12.191406 9.753906 25 9.753906 4.425781 0 8-3.574219 8-8s-3.574219-8-8-8c-7.191406 0-10.296875-2.488281-15-6.246094-5.441406-4.347656-12.191406-9.753906-25-9.753906s-19.558594 5.40625-25 9.753906c-2.488281 1.988282-4.558594 3.582032-7 4.6875v-47.257812c7.855469-1.664063 12.832031-5.597656 17-8.925782 4.703125-3.769531 7.808594-6.257812 15-6.257812s10.296875 2.488281 15 6.246094c5.441406 4.347656 12.191406 9.753906 25 9.753906 4.425781 0 8-3.574219 8-8s-3.574219-8-8-8c-7.191406 0-10.296875-2.488281-15-6.246094-5.441406-4.347656-12.191406-9.753906-25-9.753906s-19.558594 5.40625-25 9.753906c-2.488281 1.988282-4.558594 3.582032-7 4.6875v-47.257812c7.855469-1.664063 12.832031-5.597656 17-8.9375 4.703125-3.757813 7.808594-6.246094 15-6.246094s10.296875 2.488281 15 6.246094c5.441406 4.347656 12.191406 9.753906 25 9.753906 4.425781 0 8-3.585938 8-8s-3.574219-8-8-8c-7.191406 0-10.296875-2.488281-15-6.246094-5.441406-4.347656-12.191406-9.753906-25-9.753906s-19.558594 5.40625-25 9.753906c-2.488281 1.988282-4.558594 3.582032-7 4.679688v-47.257813c7.855469-1.664062 12.832031-5.601562 17-8.9375 4.703125-3.75 7.808594-6.238281 15-6.238281s10.296875 2.488281 15 6.246094c5.441406 4.347656 12.191406 9.753906 25 9.753906 4.425781 0 8-3.585938 8-8s-3.574219-8-8-8c-7.191406 0-10.296875-2.488281-15-6.246094-5.441406-4.347656-12.191406-9.753906-25-9.753906s-19.558594 5.40625-25 9.753906c-2.488281 1.988282-4.558594 3.582032-7 4.679688v-22.433594c0-18.902344-13.222656-34.703125-30.878906-38.855469 2.96875-9.878906 12.039062-17.144531 22.878906-17.144531h16c4.425781 0 8-3.585938 8-8s-3.574219-8-8-8h-16c-13.070312 0-24.695312 6.304688-32 16.023438-7.304688-9.71875-18.929688-16.023438-32-16.023438h-16c-4.414062 0-8 3.585938-8 8s3.585938 8 8 8h16c10.839844 0 19.910156 7.265625 22.878906 17.144531-17.65625 4.152344-30.878906 19.953125-30.878906 38.855469v22.441406c-2.441406-1.097656-4.511719-2.6875-7-4.679687-5.433594-4.355469-12.191406-9.761719-25-9.761719s-19.566406 5.40625-25 9.753906c-4.695312 3.757813-7.808594 6.246094-15 6.246094-4.414062 0-8 3.585938-8 8s3.585938 8 8 8c12.808594 0 19.566406-5.40625 25-9.753906 4.695312-3.757813 7.808594-6.246094 15-6.246094s10.304688 2.488281 15 6.246094c4.167969 3.339844 9.144531 7.273437 17 8.9375v47.257812c-2.441406-1.097656-4.511719-2.6875-7-4.679687-5.433594-4.355469-12.191406-9.761719-25-9.761719s-19.566406 5.40625-25 9.753906c-4.695312 3.757813-7.808594 6.246094-15 6.246094-4.414062 0-8 3.585938-8 8s3.585938 8 8 8c12.808594 0 19.566406-5.40625 25-9.753906 4.695312-3.757813 7.808594-6.246094 15-6.246094s10.304688 2.488281 15 6.246094c4.167969 3.339844 9.144531 7.273437 17 8.9375v47.257812c-2.441406-1.097656-4.511719-2.699218-7-4.6875-5.433594-4.347656-12.191406-9.753906-25-9.753906s-19.566406 5.40625-25 9.753906c-4.695312 3.757813-7.808594 6.246094-15 6.246094-4.414062 0-8 3.574219-8 8s3.585938 8 8 8c12.808594 0 19.566406-5.40625 25-9.753906 4.695312-3.757813 7.808594-6.246094 15-6.246094s10.304688 2.488281 15 6.246094c4.167969 3.328125 9.144531 7.265625 17 8.929687zm16-142.433594h48v48h-48zm0 64h48v48h-48zm48 120c0 13.230469-10.769531 24-24 24s-24-10.769531-24-24v-56h48zm-48-256c0-13.230469 10.769531-24 24-24s24 10.769531 24 24v56h-48zm0 0"/></svg>