<?xml version="1.0" encoding="iso-8859-1"?>
<!-- Generator: Adobe Illustrator 19.0.0, SVG Export Plug-In . SVG Version: 6.00 Build 0)  -->
<svg version="1.1" id="Capa_1" xmlns="http://www.w3.org/2000/svg" xmlns:xlink="http://www.w3.org/1999/xlink" x="0px" y="0px"
	 viewBox="0 0 512 512" style="enable-background:new 0 0 512 512;" xml:space="preserve">
<g>
	<g>
		<path d="M467.665,206.389H512v-30h-56.137l-39.894,37.136h-67.312c-6.02-9.378-12.332-18.06-18.844-25.933l77.901-30.342
			l51.358-69.484l-24.125-17.832l-46.203,62.509l-65.642,25.568c3.063-6.337,4.781-13.439,4.781-20.936
			c0-26.617-21.654-48.271-48.271-48.271H271V53.898h-30v34.907h-8.613c-26.617,0-48.271,21.654-48.271,48.271
			c0,7.497,1.719,14.599,4.781,20.936l-65.642-25.567l-46.203-62.51L52.927,87.767l51.358,69.484l77.901,30.342
			c-6.511,7.872-12.824,16.555-18.844,25.933H96.03l-39.893-37.137H0v30h44.335l39.894,37.136h62.061
			c-4.028,8.003-7.845,16.316-11.401,24.901c-0.874,2.11-1.715,4.223-2.546,6.336l-78.864,32.072l-8.116,58.553L5.389,390.294
			l15.864,25.462l51.896-32.334l7.668-55.319l39.118-15.908c-6.636,24.623-10.001,48.416-9.676,69.517
			c0.582,37.82,13.123,63.709,35.312,72.9c5.889,2.439,11.8,3.489,17.617,3.489c18.508,0,36.046-10.634,48.737-20.994
			c0.317-0.259,0.634-0.541,0.951-0.804c13.31,6.688,28.01,10.195,43.124,10.195c15.115,0,29.815-3.507,43.124-10.195
			c0.317,0.263,0.634,0.545,0.951,0.804c12.691,10.36,30.228,20.994,48.737,20.994c5.815,0,11.729-1.05,17.617-3.489
			c22.189-9.191,34.729-35.081,35.312-72.9c0.325-21.101-3.04-44.893-9.676-69.516l39.118,15.908l7.668,55.319l51.896,32.334
			l15.864-25.462l-39.974-24.906l-8.116-58.553l-78.864-32.072c-0.83-2.113-1.672-4.226-2.546-6.336
			c-3.556-8.585-7.373-16.898-11.401-24.901h62.061L467.665,206.389z M232.386,118.804h47.228c10.075,0,18.271,8.196,18.271,18.271
			s-8.196,18.271-18.271,18.271h-47.228c-10.075,0-18.271-8.196-18.271-18.271S222.312,118.804,232.386,118.804z M226.791,185.011
			c1.837,0.213,3.702,0.335,5.596,0.335h47.228c1.894,0,3.759-0.122,5.596-0.335c6.508,5.285,13.022,11.773,19.4,19.25
			c-4.339,22.02-11.657,41.397-20.885,55.07c-5.024,7.444-15.306,19.931-27.726,19.931c-12.42,0-22.702-12.488-27.726-19.932
			c-9.227-13.673-16.545-33.049-20.884-55.068C213.769,196.785,220.282,190.296,226.791,185.011z M192.955,413.868
			c-14.409,11.761-27.495,16.513-35.903,13.028c-10.142-4.201-16.421-21.264-16.796-45.645
			c-0.454-29.463,7.483-65.454,22.35-101.343c6.472-15.626,13.936-30.372,22.002-43.706c12.095,37.682,32.354,63.226,56.393,70.751
			v45.487C226.561,378.554,209.589,400.288,192.955,413.868z M256,416.497c-6.963,0-13.794-1.085-20.294-3.173
			c7-8.289,13.822-17.528,20.294-27.537c6.472,10.009,13.295,19.248,20.295,27.537C269.795,415.413,262.964,416.497,256,416.497z
			 M371.744,381.251c-0.375,24.381-6.654,41.444-16.796,45.645c-8.409,3.481-21.493-1.266-35.901-13.028
			c-16.634-13.579-33.607-35.312-48.047-61.428v-45.487c24.038-7.525,44.297-33.069,56.392-70.752
			c8.066,13.334,15.53,28.08,22.002,43.707C364.26,315.796,372.197,351.788,371.744,381.251z"/>
	</g>
</g>
<g>
</g>
<g>
</g>
<g>
</g>
<g>
</g>
<g>
</g>
<g>
</g>
<g>
</g>
<g>
</g>
<g>
</g>
<g>
</g>
<g>
</g>
<g>
</g>
<g>
</g>
<g>
</g>
<g>
</g>
</svg>
