<svg xmlns="http://www.w3.org/2000/svg" viewBox="0 0 1099.05 283.56"><defs><style>.cls-1{fill:#7eaa4b;}.cls-2,.cls-3,.cls-4{fill:#fff;}.cls-3,.cls-4{stroke:#fff;stroke-miterlimit:10;}.cls-4{font-size:65.06px;font-family:MyriadPro-Regular, Myriad Pro;}</style></defs><g id="Layer_2" data-name="Layer 2"><g id="Layer_1-2" data-name="Layer 1"><rect class="cls-1" x="311.54" y="133.73" width="786.44" height="148.1" rx="12.68"/><path d="M116.6,156.48c2.39,1,4.67,1.84,6.9,2.82,2.56,1.13,3.77,3,3.77,6.14q-.12,53.51,0,107c0,2.77-.91,4.88-3.3,5.65-5.14,1.67-10.31,3.55-15.6,4.3A104.14,104.14,0,0,1,69.93,281a46,46,0,0,1-8-2.92c-2.21-1-3.29-2.77-3.16-5.49.18-3.61.05-7.24.05-10.34L42.7,256.24c-.35,3.71-.69,7.26-1.05,11l-4-.45c.25-3.43.37-6.79.77-10.1.22-1.79-.23-2.56-1.9-2.87-1.85-.34-3.65-.93-6-1.55-1.86,7.75-3.68,15.35-5.6,23.42-3.47-2.53-5.27-1-7.39,1.66-3.87,4.88-14,3.16-16.23-3.9-5-15.65,5.6-24.85,16.6-26.25,2.07-.27,2.73-1.19,3.25-3,2.49-8.75,5.05-17.48,7.67-26.48-2.68-1.79-5.4-3.72-8.23-5.45-1.8-1.1-2-2.18-.8-4,1.91-2.92,3.7-5.94,5.41-9,1-1.74,1.94-2.08,3.56-.9,2.19,1.6,4.49,3,6.87,4.59l1.11-2.38,5,1.42c1.49-5,3-9.85,4.38-14.71q10.61-36.27,21.2-72.56c1.08-3.68,1-3.64-2-5.51a20.55,20.55,0,0,1-3.85-2.81c-2.21-2.2-2-4.42.8-5.63a27.55,27.55,0,0,1,7.48-1.92,3.09,3.09,0,0,0,3-2.63Q84.59,55.36,96.63,14.5c.35-1.19.57-2.17-.59-3S95,9.53,96.17,8.75c2-1.31,3-4.08,6-4.18,1,0,1.87-2,2.79-3.17,1.19-1.47,2.46-2,4-.49,2.05,2,2.34,3.53,1,5.32-.45.58-1,1.06-1.45,1.63-.64.81-1.9,1.32-1.15,2.84.11.23-.47,1-.85,1.33a28.74,28.74,0,0,1-3.37,3.08,18.91,18.91,0,0,1-3.57,1.43c-7.8,26.64-15.82,54-23.79,81.25,4.27,0,8.33-.14,12.38,0,10.11.41,20.23.88,30.33,1.53a12.83,12.83,0,0,1,5.27,1.88c2,1.1,2.25,2.82.72,4.49a17.74,17.74,0,0,1-4.89,3.74,4.62,4.62,0,0,0-2.64,3.66c-1,5.4-1.07,5.39-6.37,5.38-3.06,0-6.13,0-9.19.06-.5,0-1,.64-1.48,1,.5.35,1,1,1.51,1,5,.57,10,1,15,1.55,2.53.27,3.26,1.13,3.27,3.83,0,5.61.09,11.23-.06,16.84,0,1.13-.68,2.82-1.51,3.22-1.4.69-1.55,1.54-1.52,2.86C116.64,151.41,116.6,154,116.6,156.48ZM59.86,224.8c0,16.58,0,32.67.09,48.75a4.37,4.37,0,0,0,2,3.19,45.45,45.45,0,0,0,9.25,3.44,103,103,0,0,0,35.83,1.29c5.38-.69,10.65-2.52,15.91-4.07,2.21-.65,3.23-2.44,3.22-5.1-.1-14.85,0-29.71,0-44.56,0-.87-.08-1.74-.13-2.91C103.88,230.39,82,231,59.86,224.8Zm66.3-33.55v-2.52c0-7.75-.1-15.51,0-23.27.05-2.67-1-4.25-3.14-5.17-2.44-1-4.93-1.94-7.59-3V146.81c-7.63.3-15.06.82-22.49.85s-14.87-.46-22.62-.73c0,3-.09,5.94,0,8.89a2,2,0,0,1-1.74,2.37,47.32,47.32,0,0,0-6.16,2.35,4.55,4.55,0,0,0-2.71,4.69c.16,7.84.06,15.68.07,23.52,0,.87.07,1.74.11,2.56C78.94,194.16,108.07,194.14,126.16,191.25ZM60.13,224c7.22,1.19,14.29,2.71,21.44,3.46,14.17,1.49,28.18-.13,42.06-3.36,1.67-.38,2.29-1,2.28-2.91-.09-8.83,0-17.66,0-26.49a19.44,19.44,0,0,0-.22-2,281.08,281.08,0,0,1-65.53.07Zm32.21-77.38,23.73-1.35c1.3-.08,2.28-.46,2.27-2.15,0-5.85,0-11.71,0-17.56,0-.65-.62-1.78-1.06-1.84a102.79,102.79,0,0,0-12.58-1.31c-6.65,0-13.34,1-19.92.41a89.81,89.81,0,0,0-15.4.46c-1.63.14-2.46.92-2.42,2.87.12,5.44.14,10.88,0,16.32,0,2.15.92,2.71,2.64,2.81C77.23,145.73,84.9,146.19,92.34,146.63ZM58.85,257.2v-3.49c0-29.48,0-59-.06-88.43,0-2.91,1-4.75,3.41-5.84s4.64-1.92,7-2.9v-9.73c-3.4-1.05-3.62-1.36-3.63-5,0-2.51,0-5,0-7.53l-.48-.06L45,203.09l4.29,1.65c-.7,2.42-1.36,4.61-2,6.82-.16.59-.34,1.67-.12,1.8,1.39.84.54,1.86.31,2.77-.7,2.7-1.85,5.33-2.14,8.07-.89,8.53-1.5,17.1-2.1,25.66a2.7,2.7,0,0,0,1.26,2.06c3,1.42,6.06,2.69,9.16,3.88A53,53,0,0,0,58.85,257.2ZM92.61,115.05h0c5.81,0,11.61,0,17.41,0,1.57,0,2.34-.42,2.2-2.23a33.37,33.37,0,0,1,0-4.69c.11-1.62-.38-2.3-2-2.55a110.68,110.68,0,0,0-30.95-.53c-6.24.79-6.14.91-6.21,7.4,0,2.19.81,2.62,2.63,2.59C81.32,115,87,115.05,92.61,115.05ZM18.83,251.92c-8.95-.87-17.49,9.35-13.21,19.88,1,2.43,2.4,3.53,4.65,3.72a5,5,0,0,0,5.35-2.94,3.81,3.81,0,0,0-.88-.4c-2.31-.36-2.76-1.59-1.77-3.75,1.12-2.42,2.21-4.87,3.09-7.4C17.09,258.11,17.87,255.1,18.83,251.92Zm19.74-2.07c.18-.2.27-.25.27-.31.71-8,1.45-16.06,2.06-24.1.05-.59-.78-1.26-1.59-2.47L32,248ZM69,121.92c5.17-.45,10.16-.86,15.14-1.36.46,0,.87-.66,1.3-1-.49-.34-1-1-1.49-1-3.84-.09-7.69.11-11.52-.12C69.9,118.29,68.94,119.32,69,121.92Z"/><path class="cls-2" d="M59.86,224.8c22.13,6.19,44,5.59,66.17,0,0,1.17.13,2,.13,2.91,0,14.85,0,29.71,0,44.56,0,2.66-1,4.45-3.22,5.1-5.26,1.55-10.53,3.38-15.91,4.07a103,103,0,0,1-35.83-1.29A45.45,45.45,0,0,1,62,276.74a4.37,4.37,0,0,1-2-3.19C59.82,257.47,59.86,241.38,59.86,224.8Z"/><path class="cls-2" d="M126.16,191.25c-18.09,2.89-47.22,2.91-66.19.06,0-.82-.11-1.69-.11-2.56,0-7.84.09-15.68-.07-23.52a4.55,4.55,0,0,1,2.71-4.69,47.32,47.32,0,0,1,6.16-2.35,2,2,0,0,0,1.74-2.37c-.12-2.95,0-5.9,0-8.89,7.75.27,15.18.75,22.62.73s14.86-.55,22.49-.85v10.52c2.66,1,5.15,1.92,7.59,3,2.16.92,3.19,2.5,3.14,5.17-.15,7.76,0,15.52,0,23.27Z"/><path class="cls-1" d="M60.13,224v-31.2a281.08,281.08,0,0,0,65.53-.07,19.44,19.44,0,0,1,.22,2c0,8.83-.06,17.66,0,26.49,0,1.88-.61,2.53-2.28,2.91-13.88,3.23-27.89,4.85-42.06,3.36C74.42,226.72,67.35,225.2,60.13,224Z"/><path class="cls-1" d="M92.34,146.63c-7.44-.44-15.11-.9-22.78-1.34-1.72-.1-2.69-.66-2.64-2.81.13-5.44.11-10.88,0-16.32,0-2,.79-2.73,2.42-2.87a89.81,89.81,0,0,1,15.4-.46c6.58.56,13.27-.46,19.92-.41a102.79,102.79,0,0,1,12.58,1.31c.44.06,1.06,1.19,1.06,1.84.08,5.85,0,11.71,0,17.56,0,1.69-1,2.07-2.27,2.15Z"/><path d="M164.88,148.86c0-1.32-.12-2.17-1.52-2.86-.82-.4-1.48-2.09-1.51-3.22-.15-5.61-.08-11.23-.06-16.84,0-2.7.74-3.56,3.28-3.83,5-.52,10-1,15-1.55.53-.06,1-.66,1.52-1-.5-.35-1-1-1.49-1-3.06-.1-6.13-.06-9.19-.06-5.3,0-5.35,0-6.37-5.38a4.58,4.58,0,0,0-2.64-3.66,17.89,17.89,0,0,1-4.89-3.74c-1.53-1.67-1.23-3.39.72-4.49A12.88,12.88,0,0,1,163,99.35c10.1-.65,20.22-1.12,30.33-1.53,4.05-.17,8.11,0,12.38,0-8-27.23-16-54.61-23.79-81.25a18.91,18.91,0,0,1-3.57-1.43A28.74,28.74,0,0,1,175,12c-.38-.38-1-1.1-.85-1.33.75-1.52-.5-2-1.15-2.84-.45-.57-1-1.05-1.45-1.63-1.38-1.79-1.09-3.31,1-5.32,1.54-1.52,2.8-1,4,.49.92,1.13,1.83,3.14,2.8,3.17,3,.1,4,2.87,6,4.18,1.21.78,1.36,1.81.13,2.72s-.93,1.84-.59,3q12,40.88,23.92,81.78a3.09,3.09,0,0,0,3,2.63,27.55,27.55,0,0,1,7.48,1.92c2.78,1.21,3,3.43.8,5.63a20.23,20.23,0,0,1-3.85,2.81c-3.09,1.87-3.11,1.83-2,5.51q10.6,36.28,21.2,72.56c1.42,4.86,2.89,9.7,4.38,14.71l5-1.42,1.11,2.38c2.38-1.57,4.68-3,6.87-4.59,1.63-1.18,2.59-.84,3.56.9,1.71,3.06,3.5,6.08,5.41,9,1.16,1.77,1,2.85-.79,4-2.83,1.73-5.56,3.66-8.24,5.45,2.62,9,5.19,17.73,7.67,26.48.52,1.81,1.18,2.73,3.25,3,11,1.4,21.64,10.6,16.61,26.25-2.27,7.06-12.37,8.78-16.24,3.9-2.12-2.68-3.91-4.19-7.39-1.66-1.92-8.07-3.74-15.67-5.59-23.42-2.33.62-4.13,1.21-6,1.55-1.68.31-2.13,1.08-1.91,2.87.4,3.31.53,6.67.77,10.1l-4,.45c-.36-3.74-.7-7.29-1-11l-16.15,6.05c0,3.1-.13,6.73,0,10.34.13,2.72-.95,4.52-3.16,5.49a45.67,45.67,0,0,1-8,2.92,104.1,104.1,0,0,1-38.41,1.37c-5.3-.75-10.47-2.63-15.61-4.3-2.38-.77-3.31-2.88-3.3-5.65q.08-53.5,0-107c0-3.13,1.22-5,3.77-6.14,2.23-1,4.51-1.84,6.9-2.82C164.87,154,164.83,151.41,164.88,148.86Zm-9.44,76c-.05,1.17-.13,2-.13,2.91,0,14.85.05,29.71,0,44.56,0,2.66,1,4.45,3.21,5.1,5.26,1.55,10.53,3.38,15.91,4.07a103.08,103.08,0,0,0,35.84-1.29,45.36,45.36,0,0,0,9.24-3.44,4.37,4.37,0,0,0,2.05-3.19c.14-16.08.09-32.17.09-48.75C199.48,231,177.59,230.39,155.44,224.83Zm66.06-33.52c0-.82.11-1.69.11-2.56,0-7.84-.09-15.68.07-23.52a4.55,4.55,0,0,0-2.71-4.69,46.77,46.77,0,0,0-6.16-2.35,2,2,0,0,1-1.74-2.37c.12-2.95,0-5.9,0-8.89-7.75.27-15.19.75-22.63.73s-14.86-.55-22.49-.85v10.52c-2.65,1-5.15,1.92-7.59,3-2.15.92-3.19,2.5-3.14,5.17.15,7.76.06,15.52.06,23.27v2.52C173.41,194.14,202.53,194.16,221.5,191.31Zm-.15,1.5a281.08,281.08,0,0,1-65.53-.07,17.09,17.09,0,0,0-.23,2c0,8.83.06,17.66,0,26.49,0,1.88.6,2.53,2.28,2.91,13.87,3.23,27.88,4.85,42.05,3.36,7.15-.75,14.22-2.27,21.45-3.46Zm-9.44-47.52c1.72-.1,2.69-.66,2.64-2.81q-.18-8.16,0-16.32c0-2-.78-2.73-2.42-2.87a89.78,89.78,0,0,0-15.4-.46c-6.58.56-13.27-.46-19.91-.41a102.74,102.74,0,0,0-12.59,1.31c-.44.06-1.05,1.19-1.06,1.84-.08,5.85,0,11.71-.05,17.56,0,1.69,1,2.07,2.27,2.15l23.73,1.35C196.58,146.19,204.24,145.73,211.91,145.29ZM227.82,255.8c3.1-1.19,6.16-2.46,9.17-3.88a2.68,2.68,0,0,0,1.25-2.06c-.6-8.56-1.21-17.13-2.1-25.66-.29-2.74-1.44-5.37-2.13-8.07-.24-.91-1.09-1.93.3-2.77.22-.13,0-1.21-.12-1.8-.6-2.21-1.26-4.4-2-6.82l4.29-1.65-20.16-68.91-.48.06c0,2.51,0,5,0,7.53,0,3.68-.23,4-3.62,5v9.73c2.37,1,4.73,1.85,7,2.9s3.41,2.93,3.4,5.84c-.09,29.48-.06,58.95-.06,88.43v3.49A53,53,0,0,0,227.82,255.8Zm-22-140.73c1.82,0,2.66-.4,2.63-2.59-.07-6.49,0-6.61-6.21-7.4a110.61,110.61,0,0,0-30.94.53c-1.63.25-2.13.93-2,2.55a33.37,33.37,0,0,1,0,4.69c-.14,1.81.63,2.25,2.2,2.23,5.8-.06,11.61,0,17.41,0h0C194.5,115.05,200.15,115,205.79,115.07Zm59.62,146c.88,2.53,2,5,3.09,7.4,1,2.16.54,3.39-1.77,3.75a3.59,3.59,0,0,0-.87.4,5,5,0,0,0,5.34,2.94c2.25-.19,3.66-1.29,4.65-3.72,4.28-10.53-4.26-20.75-13.2-19.88C263.6,255.1,264.38,258.11,265.41,261Zm-15.93-13c-2.4-8.18-4.73-16.16-7.32-25-.8,1.21-1.64,1.88-1.59,2.47.61,8,1.35,16.07,2.06,24.1,0,.06.09.11.28.31ZM209.1,118.44c-3.83.23-7.69,0-11.53.12-.5,0-1,.65-1.49,1,.43.35.84,1,1.31,1,5,.5,10,.91,15.13,1.36C212.53,119.32,211.58,118.29,209.1,118.44Z"/><path class="cls-2" d="M221.61,224.8c-22.13,6.19-44,5.59-66.17,0-.05,1.17-.13,2-.13,2.91,0,14.85.05,29.71,0,44.56,0,2.66,1,4.45,3.21,5.1,5.26,1.55,10.53,3.38,15.91,4.07a103.08,103.08,0,0,0,35.84-1.29,45.36,45.36,0,0,0,9.24-3.44,4.37,4.37,0,0,0,2.05-3.19C221.66,257.47,221.61,241.38,221.61,224.8Z"/><path class="cls-2" d="M155.32,191.25c18.09,2.89,47.21,2.91,66.18.06,0-.82.11-1.69.11-2.56,0-7.84-.09-15.68.07-23.52a4.55,4.55,0,0,0-2.71-4.69,46.77,46.77,0,0,0-6.16-2.35,2,2,0,0,1-1.74-2.37c.12-2.95,0-5.9,0-8.89-7.75.27-15.19.75-22.63.73s-14.86-.55-22.49-.85v10.52c-2.65,1-5.15,1.92-7.59,3-2.15.92-3.19,2.5-3.14,5.17.15,7.76.06,15.52.06,23.27Z"/><path class="cls-1" d="M199.9,227.47c-14.17,1.49-28.18-.13-42.05-3.36-1.68-.38-2.3-1-2.28-2.91.08-8.83,0-17.66,0-26.49a17.09,17.09,0,0,1,.23-2,281.08,281.08,0,0,0,65.53.07V224C214.12,225.2,207.05,226.72,199.9,227.47Z"/><path class="cls-1" d="M189.13,146.63c7.45-.44,15.11-.9,22.78-1.34,1.72-.1,2.69-.66,2.64-2.81q-.18-8.16,0-16.32c0-2-.78-2.73-2.42-2.87a89.78,89.78,0,0,0-15.4-.46c-6.58.56-13.27-.46-19.91-.41a102.74,102.74,0,0,0-12.59,1.31c-.44.06-1.05,1.19-1.06,1.84-.08,5.85,0,11.71-.05,17.56,0,1.69,1,2.07,2.27,2.15Z"/><path d="M389.09,92.37c-.55-11.71-1.15-25.79-1.09-38.15h-.37c-3,11.12-6.78,23.36-10.7,34.84l-13.31,39.25H350.87l-12-38.72c-3.56-11.64-6.8-24-9.18-35.37h-.3c-.39,11.87-.93,26.37-1.62,38.71l-2,36.45H310.29l6-90.7h21.77L349.91,75.1c3.25,10.72,6.16,21.48,8.34,31.59h.4c2.43-9.91,5.55-21,9.06-31.66l12.58-36.35h21.5l5.2,90.7H390.85Z"/><path d="M441.15,103.74l-7.74,25.64H416.28l29.11-90.7h21.1L496,129.38H478.17L470,103.74Zm26.08-12.52-7.15-22.35c-1.75-5.62-3.24-11.79-4.61-17.05h-.3c-1.32,5.32-2.71,11.6-4.31,17l-7,22.41Z"/><path d="M515.07,52.6h-25.9V38.68h68.62V52.6H531.65v76.78H515.07Z"/><path d="M576.66,103.74l-7.74,25.64H551.79l29.11-90.7H602l29.47,90.7H613.68l-8.21-25.64Zm26.07-12.52-7.15-22.35c-1.74-5.62-3.24-11.79-4.6-17.05h-.3c-1.32,5.32-2.71,11.6-4.31,17l-7,22.41Z"/><path d="M644.05,39.83A150.83,150.83,0,0,1,669.43,38c12.09,0,20.92,2.54,26.7,7.42,5.41,4.43,8.88,11.55,8.88,20.08S702.33,81.15,697.28,86c-6.66,6.6-16.92,9.76-28.67,9.76a40.2,40.2,0,0,1-8.11-.64v34.24H644.05ZM660.5,82.12a33.07,33.07,0,0,0,8.12.75c12.38,0,19.94-6.17,19.94-16.8,0-10-7-15.37-18.47-15.37a47.72,47.72,0,0,0-9.59.79Z"/><path d="M719.28,38.68h16.57v76.8h37.3v13.9H719.28Z"/><path d="M804.34,103.74l-7.74,25.64H779.47l29.11-90.7h21.1l29.47,90.7H841.36l-8.21-25.64Zm26.08-12.52-7.15-22.35c-1.74-5.62-3.24-11.79-4.61-17.05h-.3c-1.31,5.32-2.7,11.6-4.31,17l-7,22.41Z"/><path d="M941.68,125.24a92.23,92.23,0,0,1-29.21,5c-15.3,0-27-3.85-35.54-12.09-8.1-7.72-12.77-19.63-12.73-33.32.07-28.76,20.54-47.11,50.55-47.11,11.16,0,19.86,2.26,24.08,4.26l-3.68,13.34c-4.94-2.18-11-3.86-20.62-3.86C895.22,51.51,881.58,63,881.58,84c0,20.64,12.71,32.8,31.49,32.8,6,0,10.41-.78,12.53-1.8V92.39h-16v-13h32.06Z"/><path d="M976.72,103.74,969,129.38H951.85L981,38.68h21.1l29.47,90.7h-17.79l-8.21-25.64Zm26.08-12.52-7.15-22.35c-1.74-5.62-3.24-11.79-4.61-17.05h-.3c-1.32,5.32-2.71,11.6-4.31,17l-7,22.41Z"/><path d="M1043.8,111.31a46,46,0,0,0,21.93,5.78c10.57,0,16.48-5,16.48-12.38,0-6.85-4.59-10.89-16.07-15-15-5.32-24.55-13.36-24.55-26.36,0-14.86,12.42-26,32.1-26,9.83,0,17,2.09,21.74,4.49l-4,13.36a39.4,39.4,0,0,0-18.12-4.3c-10.52,0-15,5.59-15,10.92,0,7,5.24,10.23,17.35,14.85,15.75,6,23.33,13.93,23.33,27,0,14.59-11,27.25-34.39,27.25-9.6,0-19.56-2.73-24.52-5.76Z"/><path class="cls-3" d="M375.15,190.66a23.33,23.33,0,0,0,11.21,2.94c6.4,0,10.13-3.14,10.13-7.68,0-4.22-2.58-6.62-9.12-9-7.91-2.61-12.79-6.42-12.79-12.77,0-7,6.25-12.24,15.66-12.24A23.33,23.33,0,0,1,401,154.16l-1.72,4.75a20.37,20.37,0,0,0-9.2-2.14c-6.62,0-9.13,3.67-9.13,6.75,0,4.21,3,6.28,9.63,8.69,8.19,2.94,12.36,6.62,12.36,13.24,0,7-5.53,13-17,13-4.67,0-9.77-1.27-12.36-2.88Z"/><path class="cls-3" d="M417.69,152.69v45.06h-6.25V152.69Z"/><path class="cls-3" d="M427.75,190.66A23.33,23.33,0,0,0,439,193.6c6.39,0,10.13-3.14,10.13-7.68,0-4.22-2.58-6.62-9.12-9-7.91-2.61-12.8-6.42-12.8-12.77,0-7,6.26-12.24,15.67-12.24a23.33,23.33,0,0,1,10.71,2.21l-1.73,4.75a20.29,20.29,0,0,0-9.2-2.14c-6.61,0-9.12,3.67-9.12,6.75,0,4.21,2.94,6.28,9.63,8.69,8.19,2.94,12.36,6.62,12.36,13.24,0,7-5.54,13-17,13-4.67,0-9.78-1.27-12.36-2.88Z"/><path class="cls-3" d="M473.23,157.64H458.5v-4.95h35.86v4.95h-14.8v40.11h-6.33Z"/><path class="cls-3" d="M524.83,176.62H506v16.25h21v4.88H499.75V152.69h26.16v4.88H506v14.24h18.83Z"/><path class="cls-3" d="M575.92,178c-.36-6.29-.79-13.84-.72-19.46H575c-1.65,5.29-3.66,10.9-6.11,17.12l-8.55,21.86h-4.74L547.75,176c-2.3-6.35-4.24-12.17-5.61-17.52H542c-.15,5.62-.51,13.17-.94,19.93l-1.29,19.32h-6l3.38-45.06h8l8.26,21.79c2,5.55,3.67,10.5,4.89,15.18h.22c1.22-4.55,2.94-9.5,5.1-15.18l8.62-21.79h8l3,45.06h-6.11Z"/><path class="cls-3" d="M600,183.58l-5,14.17h-6.46l16.45-45.06h7.55L629,197.75h-6.69l-5.17-14.17ZM615.87,179l-4.75-13c-1.07-2.94-1.79-5.62-2.51-8.22h-.15c-.71,2.67-1.51,5.41-2.44,8.15l-4.74,13Z"/><path class="cls-3" d="M635.26,190.66a23.37,23.37,0,0,0,11.22,2.94c6.39,0,10.13-3.14,10.13-7.68,0-4.22-2.59-6.62-9.13-9-7.9-2.61-12.79-6.42-12.79-12.77,0-7,6.25-12.24,15.67-12.24a23.28,23.28,0,0,1,10.7,2.21l-1.72,4.75a20.33,20.33,0,0,0-9.2-2.14c-6.61,0-9.13,3.67-9.13,6.75,0,4.21,3,6.28,9.63,8.69,8.2,2.94,12.36,6.62,12.36,13.24,0,7-5.53,13-17,13-4.67,0-9.77-1.27-12.36-2.88Z"/><path class="cls-3" d="M727.6,178c-.36-6.29-.79-13.84-.72-19.46h-.21c-1.66,5.29-3.67,10.9-6.11,17.12L712,197.48h-4.75L699.43,176c-2.3-6.35-4.24-12.17-5.6-17.52h-.15c-.14,5.62-.5,13.17-.93,19.93l-1.3,19.32h-6l3.38-45.06h8l8.27,21.79c2,5.55,3.66,10.5,4.89,15.18h.21c1.22-4.55,2.95-9.5,5.1-15.18l8.63-21.79h8l3,45.06h-6.11Z"/><path class="cls-3" d="M786,174.75c0,15.51-10.14,23.73-22.5,23.73-12.79,0-21.77-9.22-21.77-22.86,0-14.31,9.56-23.67,22.49-23.67C777.39,152,786,161.38,786,174.75Zm-37.59.74c0,9.62,5.61,18.25,15.45,18.25s15.53-8.49,15.53-18.72c0-9-5-18.32-15.46-18.32S748.36,165.59,748.36,175.49Z"/><path class="cls-3" d="M794.06,153.29a96.92,96.92,0,0,1,13.3-.94c9,0,15.38,1.94,19.62,5.62s6.82,8.89,6.82,16.18-2.44,13.37-7,17.51-12,6.49-21.41,6.49a106.73,106.73,0,0,1-11.36-.54Zm6.25,39.85a43.53,43.53,0,0,0,6.33.33c13.36,0,20.62-6.95,20.62-19.12.07-10.63-6.39-17.38-19.62-17.38a37.75,37.75,0,0,0-7.33.6Z"/><path class="cls-3" d="M867,176.62H848.17v16.25h21v4.88H841.92V152.69h26.15v4.88h-19.9v14.24H867Z"/><path class="cls-3" d="M877.27,153.29a70,70,0,0,1,12-.94c6.68,0,11,1.14,14,3.68a10.84,10.84,0,0,1,3.81,8.56c0,5.95-4,9.89-9.13,11.5v.2c3.74,1.2,6,4.41,7.12,9.09,1.58,6.28,2.73,10.63,3.74,12.37h-6.47c-.79-1.27-1.87-5.15-3.24-10.76-1.43-6.22-4-8.56-9.7-8.76h-5.89v19.52h-6.25Zm6.25,20.52h6.4c6.68,0,10.92-3.41,10.92-8.55,0-5.82-4.53-8.36-11.14-8.43a27.34,27.34,0,0,0-6.18.54Z"/><path class="cls-3" d="M915.92,197.75V152.69h6.83l15.52,22.8a123.66,123.66,0,0,1,8.7,14.64l.14-.07c-.57-6-.71-11.5-.71-18.52V152.69h5.89v45.06H946l-15.37-22.87a139.27,139.27,0,0,1-9.06-15l-.21.07c.35,5.68.5,11.1.5,18.58v19.26Z"/><path class="cls-3" d="M1004.6,174.75c0,15.51-10.13,23.73-22.5,23.73-12.79,0-21.77-9.22-21.77-22.86,0-14.31,9.56-23.67,22.49-23.67C996.05,152,1004.6,161.38,1004.6,174.75Zm-37.59.74c0,9.62,5.61,18.25,15.45,18.25S998,185.25,998,175c0-9-5-18.32-15.45-18.32S967,165.59,967,175.49Z"/><path class="cls-3" d="M1011.85,190.66a23.33,23.33,0,0,0,11.21,2.94c6.4,0,10.14-3.14,10.14-7.68,0-4.22-2.59-6.62-9.13-9-7.91-2.61-12.79-6.42-12.79-12.77,0-7,6.25-12.24,15.66-12.24a23.33,23.33,0,0,1,10.71,2.21l-1.72,4.75a20.37,20.37,0,0,0-9.2-2.14c-6.61,0-9.13,3.67-9.13,6.75,0,4.21,2.95,6.28,9.63,8.69,8.19,2.94,12.36,6.62,12.36,13.24,0,7-5.53,13-17,13-4.67,0-9.77-1.27-12.36-2.88Z"/><path class="cls-3" d="M452.4,212a97,97,0,0,1,13.3-.93c9,0,15.38,1.93,19.62,5.61s6.82,8.89,6.82,16.18-2.44,13.37-7,17.51-12,6.49-21.41,6.49a106.73,106.73,0,0,1-11.36-.54Zm6.25,39.85a43.61,43.61,0,0,0,6.33.33c13.36,0,20.62-6.95,20.62-19.12.08-10.63-6.39-17.38-19.62-17.38a38.57,38.57,0,0,0-7.33.6Z"/><path class="cls-3" d="M525.34,235.31H506.51v16.25h21v4.88H500.26V211.38h26.16v4.88H506.51V230.5h18.83Z"/><path class="cls-3" d="M550.84,211.38h26.09v4.88H557.09v15h18.33v4.81H557.09v20.39h-6.25Z"/><path class="cls-3" d="M592.09,211.38v26.67c0,10.1,4.81,14.38,11.28,14.38,7.19,0,11.79-4.41,11.79-14.38V211.38h6.32v26.27c0,13.84-7.83,19.53-18.33,19.53-9.91,0-17.39-5.29-17.39-19.26V211.38Z"/><path class="cls-3" d="M673.14,236.65c-.36-6.28-.79-13.84-.72-19.45h-.21c-1.65,5.28-3.67,10.89-6.11,17.11l-8.55,21.86h-4.74L645,234.71c-2.3-6.35-4.24-12.17-5.6-17.51h-.15c-.14,5.61-.5,13.17-.93,19.92L637,256.44h-6l3.38-45.06h8l8.27,21.79c2,5.55,3.66,10.5,4.89,15.18h.21c1.22-4.55,3-9.49,5.1-15.18l8.63-21.79h8l3,45.06h-6.1Z"/><path class="cls-3" d="M696.35,211.38v45.06H690.1V211.38Z"/><path class="cls-3" d="M744.13,254.43a47.9,47.9,0,0,1-14.87,2.48c-7.33,0-13.37-1.74-18.11-6-4.17-3.75-6.76-9.76-6.76-16.78.07-13.44,10-23.27,26.23-23.27A32.08,32.08,0,0,1,742.7,213l-1.51,4.75a26.73,26.73,0,0,0-10.71-1.94c-11.79,0-19.48,6.82-19.48,18.12s7.41,18.18,18.69,18.18c4.1,0,6.9-.53,8.34-1.2V237.45h-9.85v-4.68h16Z"/><path class="cls-3" d="M761.52,242.27l-5,14.17H750l16.46-45.06H774l16.53,45.06h-6.68l-5.18-14.17Zm15.88-4.55-4.74-13c-1.08-2.94-1.8-5.62-2.52-8.22H770c-.72,2.67-1.51,5.41-2.45,8.15l-4.74,13Z"/><path class="cls-3" d="M830.43,255c-2.3,1.07-6.9,2.14-12.79,2.14-13.65,0-23.93-8-23.93-22.8,0-14.11,10.28-23.67,25.29-23.67,6,0,9.85,1.21,11.5,2L829,217.4a24.2,24.2,0,0,0-9.77-1.88c-11.35,0-18.9,6.76-18.9,18.59,0,11,6.83,18.12,18.61,18.12a26.62,26.62,0,0,0,10.21-1.88Z"/><path class="cls-3" d="M844.51,211.38v45.06h-6.25V211.38Z"/><path class="cls-3" d="M896.83,233.44c0,15.51-10.14,23.74-22.5,23.74-12.79,0-21.77-9.23-21.77-22.87,0-14.31,9.56-23.67,22.49-23.67C888.27,210.64,896.83,220.07,896.83,233.44Zm-37.59.74c0,9.62,5.61,18.25,15.45,18.25s15.52-8.49,15.52-18.72c0-9-5-18.32-15.45-18.32S859.24,224.28,859.24,234.18Z"/><path class="cls-3" d="M904.94,256.44V211.38h6.83l15.52,22.8A124.86,124.86,0,0,1,936,248.82l.15-.07a185,185,0,0,1-.72-18.52V211.38h5.89v45.06H935L919.6,233.57a140.9,140.9,0,0,1-9.06-15l-.21.07c.36,5.68.5,11.1.5,18.58v19.26Z"/><text class="cls-4" transform="translate(946.24 255.7) scale(1.06 1)">.</text></g></g></svg>