<svg id="Layer_1" enable-background="new 0 0 509.422 509.422" height="512" viewBox="0 0 509.422 509.422" width="512" xmlns="http://www.w3.org/2000/svg"><path d="m464.724 449.422c0 16.541-13.458 30-30 30h-145.776c-16.542 0-30-13.459-30-30v-.894c24.62-3.631 45.826-18.198 58.252-38.882l19.89 6.633 12.628 37.885 28.461-9.486-17.372-52.113-33.141-11.051c.225-1.286 6.947-48.559 6.962-48.662l47.843 9.57 12.247 36.742 28.461-9.486-17.753-53.258-66.557-13.314c4.534-32.568 4.59-30.732 4.953-36.207 3.13-1.366 62.575-4.995 89.973-64.994 13.42-3.633 25.079-13.168 31.308-25.695 17.282-34.727 3.579-77.617-10.289-111.1-9.34-22.566-22.357-44.849-38.708-65.11l-23.346 18.842c6.53 8.09 12.556 16.662 17.971 25.562-10.048 31.337-9.493 34.567-22.805 55.86-8.132 13.006-17.349 27.748-17.323 46.537.034 21.959 10.422 43.43 30.576 52.465-22.076 34.656-57.912 36.569-60.912 37.749-7.74-24.794-26.687-44.433-51.319-53.018v-34.575h-30v30c-28.66.021-27.097-.046-30 .055v-30.055h-30v36.867c-21.888 9.557-38.341 28.004-45.435 50.593-2.47-1.005-40.107-3.103-61.824-40.205 16.866-10.082 25.574-29.837 25.604-49.88.026-18.785-9.191-33.527-17.324-46.535-13.165-21.06-12.58-23.961-22.804-55.86 5.41-8.89 11.438-17.464 17.971-25.56l-23.346-18.84c-16.148 20.008-29.253 42.262-38.705 65.103-13.869 33.486-27.573 76.375-10.293 111.1 7.087 14.251 21.486 25.183 38.48 27.057 27.585 58.293 85.843 62.279 88.637 63.494.342 5.303.497 4.248 4.811 35.242l-72.249 14.422-17.753 53.258 28.461 9.486 12.247-36.74 53.529-10.707c8.177 57.567 6.605 46.523 6.819 47.951l-38.685 12.895-17.372 52.115 28.461 9.486 12.628-37.885 24.781-8.26c11.316 19.863 30.619 34.359 53.36 39.422v1.98c0 33.084 26.916 60 60 60h145.775c33.084 0 60-26.916 60-60h-29.998zm-34.911-366.115c9.795 24.877 19.432 57.432 8.43 79.541-8.833 17.762-37.591 14.339-37.64-16.092-.021-16.186 17.619-31.055 29.21-63.449zm-380.161 79.537c-11.001-22.105-1.365-54.658 8.431-79.537 11.628 32.51 29.235 44.998 29.21 63.447-.045 30.503-28.86 33.744-37.641 16.09zm145.501 210.289-15.127-106.145c-3.282-30.719 20.823-57.566 51.741-57.566h30.206c30.893 0 55.026 26.823 51.741 57.566-.312 2.191 2.516-17.65-15.126 106.145-8.137 61.352-95.319 61.311-103.435 0z"/></svg>