<svg id="Capa_1" enable-background="new 0 0 512 512" height="512" viewBox="0 0 512 512" width="512" xmlns="http://www.w3.org/2000/svg"><g><path d="m244.289 180.625h-56.039c-24.882 0-45.125-20.243-45.125-45.125v-30.125h30v30.125c0 8.34 6.785 15.125 15.125 15.125h56.039z" fill="#714b55"/><path d="m293.62 423.4v13.35c0 16.88-5.58 32.47-15 45.03-13.73 18.34-35.62 30.22-60.24 30.22h-30.13c-41.49 0-75.25-33.76-75.25-75.25h30c0 24.95 20.3 45.25 45.25 45.25h30.13c24.95 0 45.24-20.3 45.24-45.25v-13.35z" fill="#714b55"/><path d="m293.62 423.4v13.35c0 16.88-5.58 32.47-15 45.03v-58.38z" fill="#5c344b"/><path d="m138.606 266.606-21.212-21.212 34.518-34.519h66.463v30h-54.037z" fill="#714b55"/><path d="m168.731 326.856-21.212-21.212 34.518-34.519h62.252v30h-49.826z" fill="#714b55"/><g fill="#5c344b"><path d="m369 180.625h-47.508v-30h47.508c8.34 0 15.125-6.785 15.125-15.125v-30.125h30v30.125c0 24.882-20.243 45.125-45.125 45.125z"/><path d="m418.644 266.606-25.732-25.731h-54.037v-30h66.463l34.518 34.519z"/><path d="m388.519 326.856-25.732-25.731h-49.826v-30h62.252l34.518 34.519z"/></g><path d="m158.125 120.375c-24.882 0-45.125-20.243-45.125-45.125 0-41.493 33.757-75.25 75.25-75.25h30.125v30c-8.34 0-15.125 6.785-15.125 15.125v30.125c0 24.882-20.243 45.125-45.125 45.125z" fill="#9b7870"/><path d="m128 451.75c-24.882 0-45.125-20.243-45.125-45.125v-30.125c0-8.34-6.785-15.125-15.125-15.125v-30h30.125c41.493 0 75.25 33.757 75.25 75.25 0 24.882-20.243 45.125-45.125 45.125z" fill="#9b7870"/><path d="m347.3 183.12v68.67c0 32.34-22.37 59.45-52.47 66.73 10.79 5.79 18.13 17.17 18.13 30.28 0 13.96-8.34 25.97-20.3 31.33 11.96 5.37 20.3 17.38 20.3 31.34 0 18.96-15.37 34.34-34.34 34.34-18.96 0-34.33-15.38-34.33-34.34 0-13.96 8.34-25.97 20.3-31.34-11.96-5.36-20.3-17.37-20.3-31.33 0-13.11 7.34-24.49 18.13-30.28-30.1-7.28-52.47-34.39-52.47-66.73v-68.67c0-5.93.75-11.68 2.17-17.17h133.01c1.42 5.49 2.17 11.24 2.17 17.17z" fill="#9b7870"/><path d="m347.3 183.12v68.67c0 32.34-22.37 59.45-52.47 66.73 10.79 5.79 18.13 17.17 18.13 30.28 0 13.96-8.34 25.97-20.3 31.33 11.96 5.37 20.3 17.38 20.3 31.34 0 18.96-15.37 34.34-34.34 34.34v-279.86h66.51c1.42 5.49 2.17 11.24 2.17 17.17z" fill="#714b55"/><path d="m345.13 165.95c-7.62 29.62-34.51 51.5-66.5 51.5h-.01c-31.99 0-58.88-21.88-66.5-51.5 7.62-29.62 34.51-51.51 66.5-51.51h.01c31.99 0 58.88 21.89 66.5 51.51z" fill="#714b55"/><path d="m345.13 165.95c-7.62 29.62-34.51 51.5-66.5 51.5h-.01v-103.01h.01c31.99 0 58.88 21.89 66.5 51.51z" fill="#5c344b"/><path d="m399.125 120.375c-24.882 0-45.125-20.243-45.125-45.125v-30.125c0-8.34-6.785-15.125-15.125-15.125v-30h30.125c41.493 0 75.25 33.757 75.25 75.25 0 24.882-20.243 45.125-45.125 45.125z" fill="#714b55"/></g></svg>